PathFileType	4	(X/Y/Z)	C:\Users\Basilio\Documents\Thesis Gigler\squatting_fais\c3dfiles\076\SLS_front_pre4\markers_experimental.trc
DataRate	CameraRate	NumFrames	NumMarkers	Units	OrigDataRate	OrigDataStartFrame	OrigNumFrames
200.000000	200.000000	4	61	mm	200.000000	1215	1621
Frame#	Time	FHD			LBHD			RBHD			C7			T10			CLAV			LSHO			LUUPA			LMUPA			LDUPA			LLEP			LMEP			LRAD			LUL			LRFIN			RSHO			RUPA1			RMUPA			RDUPA			RLEP			RMEP			RRAD			RUL			RUFIN			RASI			USACR			LSACR			RSACR			LTHI1			LTHI2			LTHI3			LTHI4			LLFC			LMFC			LTIB1			LTIB2			LTIB3			LTIB4			LLMAL			LMMAL			LHEE			LMT1			LMT2			LMT5			RTHI			RTHI2			RTHI3			RTHI4			RLFC			RMFC			RTIB1			RTIB2			RTIB3			RTIB4			RLMAL			RMMAL			RHEE			RMT1			RMT2			RMT5			LASI			
		X1	Y1	Z1	X2	Y2	Z2	X3	Y3	Z3	X4	Y4	Z4	X5	Y5	Z5	X6	Y6	Z6	X7	Y7	Z7	X8	Y8	Z8	X9	Y9	Z9	X10	Y10	Z10	X11	Y11	Z11	X12	Y12	Z12	X13	Y13	Z13	X14	Y14	Z14	X15	Y15	Z15	X16	Y16	Z16	X17	Y17	Z17	X18	Y18	Z18	X19	Y19	Z19	X20	Y20	Z20	X21	Y21	Z21	X22	Y22	Z22	X23	Y23	Z23	X24	Y24	Z24	X25	Y25	Z25	X26	Y26	Z26	X27	Y27	Z27	X28	Y28	Z28	X29	Y29	Z29	X30	Y30	Z30	X31	Y31	Z31	X32	Y32	Z32	X33	Y33	Z33	X34	Y34	Z34	X35	Y35	Z35	X36	Y36	Z36	X37	Y37	Z37	X38	Y38	Z38	X39	Y39	Z39	X40	Y40	Z40	X41	Y41	Z41	X42	Y42	Z42	X43	Y43	Z43	X44	Y44	Z44	X45	Y45	Z45	X46	Y46	Z46	X47	Y47	Z47	X48	Y48	Z48	X49	Y49	Z49	X50	Y50	Z50	X51	Y51	Z51	X52	Y52	Z52	X53	Y53	Z53	X54	Y54	Z54	X55	Y55	Z55	X56	Y56	Z56	X57	Y57	Z57	X58	Y58	Z58	X59	Y59	Z59	X60	Y60	Z60	X61	Y61	Z61	

1216	6.075	-272.5642089843751	1615.864990234375	-1019.049743652344	-402.5396118164064	1529.626953125	-1115.422607421875	-390.2042846679689	1536.631958007813	-963.8681640625002	-435.5057678222657	1409.097045898438	-1034.820556640625	-460.0152587890626	1094.792358398438	-1044.1982421875	-300.5461730957032	1336.213012695313	-1039.868530273438	-370.0734863281251	1350.720703125	-1221.283325195313	-405.974334716797	1146.73486328125	-1279.553833007813	-376.4844360351563	1115.727294921875	-1254.4609375	-416.0991516113282	1079.013793945313	-1283.888305664063	-439.0509338378907	1027.662353515625	-1282.591918945313	-474.0360107421876	1023.71337890625	-1208.805786132813	-392.2264099121095	785.9449462890627	-1243.895385742188	-430.6470642089845	786.2966308593752	-1297.837646484375	-389.1708068847657	696.8801879882814	-1257.631225585938	-362.2500915527344	1340.610595703125	-863.9986572265627	-412.7279052734376	1145.33251953125	-794.6007080078127	-370.8513183593751	1118.975219726563	-792.559997558594	-413.6213989257814	1075.046020507813	-790.6981201171877	-405.3722534179689	1012.889404296875	-788.0425415039065	-408.8591613769532	999.8612060546877	-868.7120361328127	-338.1635437011719	776.495788574219	-791.0671386718752	-390.2483825683595	782.4475097656252	-749.8692626953126	-329.8818969726563	701.2814941406251	-762.3916625976564	-297.7178344726563	945.0489501953127	-932.674499511719	-468.1766967773439	982.9752197265627	-1037.474853515625	-471.7909545898439	951.3606567382815	-1063.885009765625	-476.239715576172	954.4895629882815	-1007.09033203125	-343.9498291015626	748.7134399414064	-1198.098022460938	-295.3976440429688	679.2245483398439	-1190.759521484375	-247.9112396240235	693.8799438476564	-1185.140625	-309.0012207031251	622.9385986328126	-1174.451049804688	-263.5259094238282	472.0512084960939	-1141.683471679688	-237.6474304199219	483.1659545898439	-1027.149780273438	-255.6990203857422	334.4165039062501	-1050.563232421875	-284.8244018554688	275.4372863769532	-1110.375122070313	-258.4987487792969	279.7137451171876	-1070.350219726563	-295.9597473144532	216.1904449462891	-1029.501708984375	-377.8461303710938	105.8654708862305	-1072.2216796875	-354.3718261718751	121.0819702148438	-990.8076171875002	-440.9331054687501	96.21074676513675	-1024.333129882813	-239.649398803711	51.03481674194337	-1004.023803710938	-233.4710388183594	49.04367065429689	-1042.734497070313	-257.8491821289063	43.77812194824219	-1093.054321289063	-202.4235229492188	767.2669677734376	-863.992126464844	-137.3554077148438	774.8065185546877	-876.9727783203127	-126.1183547973633	804.9268798828127	-890.5382080078127	-83.60084533691408	713.5368041992189	-896.2985839843752	-34.78257751464844	682.2153320312501	-906.6561279296877	-30.92346763610841	696.1969604492189	-1023.11962890625	99.8952331542969	647.1866455078126	-935.7537231445315	135.6000366210938	547.0479125976564	-910.4249267578127	159.9293670654297	584.7251586914064	-924.6517333984377	203.0270385742188	572.1170654296876	-961.0782470703127	298.4288635253907	446.8792724609376	-933.6067504882815	286.8146667480469	472.2593688964845	-1011.817565917969	293.6153564453126	383.8531799316407	-973.2078247070315	404.9685974121095	553.1195678710939	-1013.775573730469	401.4611206054689	565.8117675781251	-966.8677368164065	408.272186279297	537.1313476562501	-912.985534667969	-299.5833740234376	919.1949462890627	-1144.766967773438	
1217	6.08	-272.7431030273438	1616.535888671875	-1018.985717773438	-402.9026184082032	1529.767944335938	-1115.226806640625	-390.4249267578126	1537.3359375	-963.8791503906252	-435.670135498047	1409.766845703125	-1034.745483398438	-459.9744567871095	1095.315307617188	-1044.349365234375	-300.7181396484376	1336.9892578125	-1039.941528320313	-370.2934570312501	1351.544189453125	-1221.385009765625	-405.442108154297	1147.37353515625	-1279.42431640625	-375.8688964843751	1116.374145507813	-1254.307495117188	-415.5928039550782	1079.549560546875	-1283.850830078125	-438.399383544922	1028.032470703125	-1282.352783203125	-473.260223388672	1024.1875	-1208.589233398438	-391.186492919922	786.5715942382815	-1244.325073242188	-429.5758056640626	786.8815917968752	-1298.06201171875	-388.090301513672	697.5157470703126	-1258.249877929688	-362.2660827636719	1341.303833007813	-864.0015869140627	-412.5989990234376	1146.01171875	-794.5610351562502	-370.9670715332032	1119.623046875	-792.4730224609377	-413.7478942871095	1075.589599609375	-790.5899047851565	-405.2171325683595	1013.508728027344	-787.8843994140627	-408.0479125976564	1000.733154296875	-868.5891723632815	-336.9491577148438	777.3510742187502	-791.0491333007815	-388.9560546875001	783.2154541015627	-749.8441772460939	-328.3034057617188	702.3325805664064	-762.2718505859376	-297.7649841308594	945.5606079101565	-932.627868652344	-468.0895385742189	983.6411743164065	-1037.57958984375	-471.740447998047	952.1203613281252	-1064.01123046875	-476.2049255371095	955.1707763671877	-1007.232360839844	-344.1053466796876	749.3336791992189	-1197.927856445313	-295.5937805175782	679.5172729492189	-1190.501953125	-248.2582092285157	694.1655273437501	-1185.14111328125	-309.8263244628907	623.5035400390626	-1174.266357421875	-264.0745239257813	472.4411926269532	-1141.369995117188	-238.3582305908204	483.6494445800782	-1026.903930664063	-256.2509460449219	334.7206726074219	-1050.295776367188	-285.0843200683594	275.9931640625001	-1110.151245117188	-258.9455566406251	280.0563049316407	-1070.221313476563	-296.2927246093751	216.4784088134766	-1029.3076171875	-377.9439697265626	105.8958053588867	-1072.16552734375	-354.4582214355469	121.1005554199219	-990.7401123046877	-440.9256896972657	96.21203613281253	-1024.337158203125	-239.6515655517579	50.97401809692384	-1004.032104492188	-233.5455169677735	49.07263946533205	-1042.7998046875	-257.8387451171876	43.80644607543946	-1093.019897460938	-202.3360748291016	768.013366699219	-863.9622192382815	-137.3058319091797	775.5430908203127	-876.9270629882815	-125.9720916748047	805.7652587890627	-890.5530395507815	-83.47940826416017	714.2659912109376	-896.3045654296877	-34.69812774658204	682.9066162109376	-906.510681152344	-30.64922714233399	697.0161132812501	-1022.886840820313	99.92773437500003	647.8220825195314	-935.6762695312502	135.6178436279297	547.7282714843751	-910.367370605469	159.9845123291016	585.4070434570314	-924.6099243164065	203.1722869873047	572.6682739257814	-960.912780761719	298.4054260253907	447.4585266113282	-933.4014282226565	287.2686767578126	472.8008728027345	-1013.263610839844	293.5292968750001	384.4346313476564	-972.8894042968752	405.435760498047	553.5343017578126	-1013.8115234375	401.3686523437501	567.3201904296876	-966.4389648437502	408.2967529296876	537.6781616210939	-912.7770996093752	-299.2676391601563	919.9729614257815	-1144.808837890625	
1218	6.085	-272.8818969726563	1617.13916015625	-1018.886596679688	-403.0635070800782	1530.68701171875	-1115.145751953125	-390.6309204101564	1538.015869140625	-963.8781738281252	-435.8206176757814	1410.35302734375	-1034.672119140625	-459.9846496582032	1095.873657226563	-1044.547973632813	-300.9188842773438	1337.78662109375	-1039.90869140625	-370.6355285644532	1352.259643554688	-1221.386352539063	-404.8071594238282	1147.885620117188	-1279.257690429688	-375.3132934570313	1117.127563476563	-1254.2158203125	-414.9685058593751	1080.043334960938	-1283.678344726563	-437.6364135742189	1028.69970703125	-1282.318725585938	-472.3679504394532	1024.618530273438	-1208.4326171875	-390.0022888183595	787.181579589844	-1244.369384765625	-428.4962768554689	787.7585449218752	-1298.283569335938	-386.7133789062501	698.1240234375001	-1258.850830078125	-362.5250244140626	1342.010498046875	-864.0508422851565	-412.4774169921876	1146.766723632813	-794.5295410156252	-370.8294982910157	1120.369506835938	-792.3636474609377	-413.5985412597657	1076.22998046875	-790.5323486328127	-405.0274658203126	1014.02099609375	-787.7796630859377	-407.7388916015626	1001.156005859375	-868.3349609375002	-335.6323547363282	778.2656860351565	-791.0734863281252	-387.824432373047	783.7611083984377	-749.9349365234376	-326.6565551757813	703.3059082031251	-762.2830810546876	-297.6528625488282	946.4804687500002	-932.557312011719	-467.9716796875001	984.1699218750002	-1037.689697265625	-471.4227905273439	952.5115966796877	-1064.110229492188	-476.1153869628907	955.730895996094	-1007.295471191406	-344.0909729003907	749.7565307617189	-1197.720581054688	-295.9816589355469	679.9491577148439	-1190.384399414063	-248.3490905761719	694.4455566406251	-1185.014038085938	-310.3371276855469	623.9663085937501	-1174.029663085938	-264.7875976562501	472.8548583984376	-1141.112670898438	-239.2493591308594	484.0476074218751	-1026.597534179688	-256.8274841308594	335.0723571777344	-1050.169677734375	-285.4477844238282	276.1907348632813	-1110.078369140625	-259.4474487304688	280.4115600585938	-1070.096313476563	-296.5835571289063	216.7506561279297	-1029.245483398438	-377.9324035644532	105.9243469238282	-1072.163940429688	-354.5935058593751	121.1189270019532	-990.6954345703127	-440.931854248047	96.21024322509768	-1024.334594726563	-239.6173706054688	51.00393676757814	-1003.994445800781	-233.4282989501954	49.08170700073244	-1042.750732421875	-257.8218078613282	43.80264282226563	-1093.022338867188	-202.3203582763672	768.6887817382815	-863.9394531250002	-137.1439666748047	776.403259277344	-876.901550292969	-125.9033889770508	806.443786621094	-890.5342407226565	-83.27891540527345	715.1906738281251	-896.1575927734377	-34.56175231933594	683.6218872070314	-906.405700683594	-30.51025581359864	697.5203247070314	-1022.741394042969	100.0104141235352	648.5709838867189	-935.6237792968752	135.7482299804688	548.4522705078126	-910.2703247070315	160.0362854003907	586.0303344726564	-924.5635986328127	203.2541809082032	573.2811889648439	-960.6934204101565	298.4129943847657	448.0793457031251	-933.2363281250002	287.2430419921876	473.3059387207032	-1011.563293457031	293.6540222167969	385.0401000976564	-973.0034790039065	405.139129638672	554.0690917968751	-1013.214660644531	401.3332519531251	567.7258300781251	-966.170593261719	408.336151123047	538.2937011718751	-912.5607910156252	-298.9482421875001	920.405456542969	-1144.712280273438	
1219	6.09	-273.1398620605469	1617.956665039063	-1018.872985839844	-403.329559326172	1531.554443359375	-1115.194702148438	-390.8034057617189	1538.735961914063	-963.8325805664065	-436.0476074218751	1411.025756835938	-1034.660888671875	-459.8919677734376	1096.650024414063	-1044.653564453125	-301.0385131835938	1338.599365234375	-1039.882690429688	-370.7750854492188	1353.009399414063	-1221.310668945313	-404.4320068359376	1148.433837890625	-1279.171752929688	-374.5582885742188	1117.853149414063	-1254.134399414063	-414.5823974609376	1080.728759765625	-1283.626708984375	-436.6424560546876	1029.17626953125	-1282.218627929688	-471.4532470703126	1024.9814453125	-1208.190063476563	-388.5506591796876	787.7285766601565	-1244.751708984375	-427.2858886718751	788.4281005859377	-1298.650512695313	-385.1912536621095	698.7658081054689	-1259.45458984375	-362.6545410156251	1342.575073242188	-864.065612792969	-412.3454895019532	1147.369506835938	-794.4923095703127	-370.6961059570313	1121.02490234375	-792.3818359375002	-413.3629150390626	1076.914794921875	-790.4311523437502	-404.7979736328126	1014.611633300781	-787.6204833984377	-407.670135498047	1001.630981445313	-868.2181396484377	-334.3141174316407	779.0791625976565	-791.0076904296877	-386.6077575683595	784.390319824219	-749.9024658203126	-324.8753051757813	704.2497558593751	-762.0880737304689	-297.6008605957032	947.2962646484377	-932.5090332031252	-467.8274536132814	984.883972167969	-1037.839599609375	-471.3768920898439	953.2476806640627	-1064.224975585938	-475.8865966796876	956.4920043945315	-1007.48388671875	-344.3884582519532	750.3923950195314	-1197.661499023438	-296.8085021972657	680.5788574218751	-1190.793090820313	-248.6628112792969	694.7705078125001	-1184.973388671875	-310.8884277343751	624.4873046875001	-1173.814453125	-265.7940673828126	473.1938476562501	-1140.970092773438	-240.0985565185547	484.4142456054689	-1026.255981445313	-257.0639038085938	335.7201232910157	-1049.820678710938	-286.0379943847657	276.5065002441407	-1109.9931640625	-259.8588867187501	280.7884521484376	-1070.08837890625	-296.8428649902344	217.0033874511719	-1029.16748046875	-377.9275817871094	105.9645233154297	-1072.138916015625	-354.6624450683594	121.0843353271485	-990.6745605468752	-440.9565429687501	96.22574615478518	-1024.293334960938	-239.6313476562501	50.94669723510744	-1004.045471191406	-233.4730224609376	49.14622116088869	-1042.762451171875	-257.8153076171876	43.85251617431641	-1093.020629882813	-202.1702423095704	769.4879150390627	-863.8858642578127	-137.0097961425782	777.015808105469	-876.948669433594	-125.7484588623047	807.179870605469	-890.5310058593752	-83.22298431396486	715.7764892578126	-896.0774536132815	-34.50578308105469	684.2102050781251	-906.3110351562502	-30.25674438476563	698.0794677734376	-1022.723388671875	100.1977157592774	649.2479248046876	-935.6643066406252	135.8218688964844	549.1007080078126	-910.0985107421877	160.1466217041016	586.6094970703126	-924.4404907226565	203.4476928710938	573.8936157226564	-960.6817016601565	298.4686584472657	448.787567138672	-933.096130371094	287.5402832031251	473.9327392578126	-1011.297790527344	293.7668151855469	385.5130615234376	-972.887634277344	405.0113830566407	554.8391723632814	-1012.864196777344	401.6210937500001	567.7384643554689	-965.9770507812502	408.3527832031251	538.8988037109376	-912.3753051757815	-298.5534667968751	920.987487792969	-1144.6630859375	
